<svg width="512" height="512" viewBox="0 0 512 512" fill="none" xmlns="http://www.w3.org/2000/svg">
<circle cx="256" cy="256" r="256" fill="#264C85"/>
<circle cx="256" cy="256" r="212" fill="#112748"/>
<path d="M475.626 195.343C463.162 150.687 437.352 110.904 401.652 81.3229L390.792 94.4294C423.821 121.797 447.7 158.604 459.231 199.919L475.626 195.343Z" fill="#D43682"/>
<path d="M37.1689 316.917C49.4815 361.615 75.157 401.485 110.757 431.186L121.661 418.116C88.7248 390.637 64.9704 353.75 53.579 312.396L37.1689 316.917Z" fill="#06C270"/>
<path d="M104.399 289.765L103.385 289.181C101.915 288.502 100.625 287.487 99.6218 286.216C98.6181 284.945 97.9283 283.456 97.6086 281.869L96.5947 276.891C96.5452 276.642 96.4112 276.417 96.2154 276.254C96.0195 276.092 95.7737 276.002 95.5193 276C95.2633 275.996 95.0144 276.084 94.8173 276.247C94.6202 276.411 94.4878 276.639 94.4439 276.891L93.43 281.899C93.1058 283.481 92.414 284.964 91.4106 286.229C90.4071 287.494 89.1202 288.505 87.6537 289.181L86.6398 289.673C86.4494 289.757 86.2876 289.895 86.174 290.069C86.0605 290.244 86 290.448 86 290.656C86 290.864 86.0605 291.068 86.174 291.242C86.2876 291.417 86.4494 291.555 86.6398 291.639L87.6537 292.131C89.1238 292.809 90.4131 293.825 91.4168 295.096C92.4205 296.366 93.1102 297.856 93.43 299.443L94.4439 304.544C94.4884 304.793 94.6219 305.018 94.8198 305.176C95.0176 305.334 95.2662 305.415 95.5193 305.404C95.7709 305.409 96.0163 305.326 96.2127 305.168C96.4092 305.011 96.5444 304.79 96.5947 304.544L97.6086 299.535C97.9328 297.954 98.6245 296.47 99.628 295.205C100.631 293.94 101.918 292.929 103.385 292.254L104.399 291.762C104.589 291.678 104.751 291.54 104.865 291.365C104.978 291.191 105.039 290.987 105.039 290.779C105.039 290.571 104.978 290.367 104.865 290.192C104.751 290.018 104.589 289.88 104.399 289.796V289.765Z" fill="white"/>
<path d="M264.399 93.7649L263.385 93.1811C261.915 92.5025 260.625 91.4866 259.622 90.216C258.618 88.9454 257.928 87.4559 257.609 85.8686L256.595 80.8911C256.545 80.6416 256.411 80.4168 256.215 80.2545C256.019 80.0922 255.774 80.0023 255.519 80.0001C255.263 79.9963 255.014 80.084 254.817 80.2473C254.62 80.4106 254.488 80.6389 254.444 80.8911L253.43 85.8993C253.106 87.4811 252.414 88.9644 251.411 90.2294C250.407 91.4943 249.12 92.5055 247.654 93.1811L246.64 93.6727C246.449 93.7571 246.288 93.8949 246.174 94.0694C246.06 94.2439 246 94.4477 246 94.6559C246 94.8642 246.06 95.0679 246.174 95.2424C246.288 95.417 246.449 95.5548 246.64 95.6391L247.654 96.1307C249.124 96.8093 250.413 97.8252 251.417 99.0958C252.42 100.366 253.11 101.856 253.43 103.443L254.444 108.544C254.488 108.793 254.622 109.018 254.82 109.176C255.018 109.334 255.266 109.415 255.519 109.404C255.771 109.409 256.016 109.326 256.213 109.168C256.409 109.011 256.544 108.79 256.595 108.544L257.609 103.535C257.933 101.954 258.625 100.47 259.628 99.2054C260.631 97.9404 261.918 96.9292 263.385 96.2536L264.399 95.762C264.589 95.6777 264.751 95.5399 264.865 95.3653C264.978 95.1908 265.039 94.987 265.039 94.7788C265.039 94.5706 264.978 94.3668 264.865 94.1923C264.751 94.0178 264.589 93.88 264.399 93.7956V93.7649Z" fill="white"/>
<path d="M438.399 250.765L437.385 250.181C435.915 249.502 434.625 248.487 433.622 247.216C432.618 245.945 431.928 244.456 431.609 242.869L430.595 237.891C430.545 237.642 430.411 237.417 430.215 237.254C430.019 237.092 429.774 237.002 429.519 237C429.263 236.996 429.014 237.084 428.817 237.247C428.62 237.411 428.488 237.639 428.444 237.891L427.43 242.899C427.106 244.481 426.414 245.964 425.411 247.229C424.407 248.494 423.12 249.505 421.654 250.181L420.64 250.673C420.449 250.757 420.288 250.895 420.174 251.069C420.06 251.244 420 251.448 420 251.656C420 251.864 420.06 252.068 420.174 252.242C420.288 252.417 420.449 252.555 420.64 252.639L421.654 253.131C423.124 253.809 424.413 254.825 425.417 256.096C426.42 257.366 427.11 258.856 427.43 260.443L428.444 265.544C428.488 265.793 428.622 266.018 428.82 266.176C429.018 266.334 429.266 266.415 429.519 266.404C429.771 266.409 430.016 266.326 430.213 266.168C430.409 266.011 430.544 265.79 430.595 265.544L431.609 260.535C431.933 258.954 432.625 257.47 433.628 256.205C434.631 254.94 435.918 253.929 437.385 253.254L438.399 252.762C438.589 252.678 438.751 252.54 438.865 252.365C438.978 252.191 439.039 251.987 439.039 251.779C439.039 251.571 438.978 251.367 438.865 251.192C438.751 251.018 438.589 250.88 438.399 250.796V250.765Z" fill="white"/>
<path d="M208.664 385.23L208.131 384.923C207.359 384.567 206.682 384.033 206.155 383.366C205.628 382.699 205.265 381.916 205.097 381.082L204.565 378.468C204.539 378.337 204.469 378.219 204.366 378.134C204.263 378.048 204.134 378.001 204 378C203.866 377.998 203.735 378.044 203.631 378.13C203.528 378.216 203.458 378.336 203.435 378.468L202.903 381.099C202.732 381.929 202.369 382.709 201.842 383.373C201.315 384.037 200.639 384.569 199.869 384.923L199.336 385.182C199.236 385.226 199.151 385.298 199.091 385.39C199.032 385.482 199 385.589 199 385.698C199 385.807 199.032 385.914 199.091 386.006C199.151 386.098 199.236 386.17 199.336 386.214L199.869 386.473C200.641 386.829 201.318 387.363 201.845 388.03C202.372 388.697 202.735 389.48 202.903 390.314L203.435 392.993C203.459 393.124 203.529 393.242 203.633 393.325C203.736 393.408 203.867 393.45 204 393.444C204.132 393.447 204.261 393.403 204.364 393.321C204.467 393.238 204.538 393.122 204.565 392.993L205.097 390.362C205.268 389.531 205.631 388.752 206.158 388.088C206.685 387.423 207.361 386.892 208.131 386.537L208.664 386.279C208.764 386.235 208.849 386.162 208.909 386.071C208.968 385.979 209 385.872 209 385.763C209 385.653 208.968 385.546 208.909 385.455C208.849 385.363 208.764 385.29 208.664 385.246V385.23Z" fill="white"/>
<path d="M103.731 242.784L103.305 242.539C102.687 242.254 102.146 241.827 101.724 241.293C101.302 240.759 101.012 240.133 100.878 239.466L100.452 237.374C100.431 237.27 100.375 237.175 100.292 237.107C100.21 237.039 100.107 237.001 100 237C99.8924 236.998 99.7878 237.035 99.705 237.104C99.6222 237.173 99.5666 237.268 99.5481 237.374L99.1221 239.479C98.9859 240.144 98.6952 240.767 98.2735 241.298C97.8519 241.83 97.3111 242.255 96.6949 242.539L96.2688 242.745C96.1888 242.781 96.1208 242.839 96.0731 242.912C96.0254 242.985 96 243.071 96 243.158C96 243.246 96.0254 243.332 96.0731 243.405C96.1208 243.478 96.1888 243.536 96.2688 243.572L96.6949 243.778C97.3126 244.063 97.8544 244.49 98.2761 245.024C98.6979 245.558 98.9877 246.184 99.1221 246.851L99.5481 248.994C99.5668 249.099 99.6229 249.193 99.7061 249.26C99.7892 249.326 99.8937 249.36 100 249.356C100.106 249.358 100.209 249.323 100.291 249.257C100.374 249.191 100.431 249.098 100.452 248.994L100.878 246.89C101.014 246.225 101.305 245.602 101.726 245.07C102.148 244.539 102.689 244.114 103.305 243.83L103.731 243.623C103.811 243.588 103.879 243.53 103.927 243.457C103.975 243.383 104 243.298 104 243.21C104 243.123 103.975 243.037 103.927 242.964C103.879 242.89 103.811 242.832 103.731 242.797V242.784Z" fill="white"/>
<path d="M151.328 131.46L150.263 130.847C148.718 130.134 147.364 129.067 146.31 127.732C145.255 126.397 144.531 124.832 144.195 123.165L143.13 117.936C143.078 117.674 142.937 117.438 142.731 117.267C142.525 117.097 142.267 117.002 142 117C141.731 116.996 141.47 117.088 141.263 117.26C141.055 117.431 140.916 117.671 140.87 117.936L139.805 123.197C139.465 124.859 138.738 126.417 137.684 127.746C136.63 129.075 135.278 130.137 133.737 130.847L132.672 131.363C132.472 131.452 132.302 131.597 132.183 131.78C132.064 131.963 132 132.177 132 132.396C132 132.615 132.064 132.829 132.183 133.012C132.302 133.196 132.472 133.34 132.672 133.429L133.737 133.945C135.282 134.658 136.636 135.725 137.69 137.06C138.745 138.395 139.469 139.96 139.805 141.627L140.87 146.985C140.917 147.247 141.057 147.483 141.265 147.649C141.473 147.816 141.734 147.901 142 147.889C142.264 147.894 142.522 147.807 142.728 147.641C142.935 147.476 143.077 147.244 143.13 146.985L144.195 141.724C144.535 140.062 145.262 138.504 146.316 137.175C147.37 135.846 148.722 134.784 150.263 134.074L151.328 133.558C151.528 133.469 151.698 133.325 151.817 133.141C151.936 132.958 152 132.744 152 132.525C152 132.306 151.936 132.092 151.817 131.909C151.698 131.726 151.528 131.581 151.328 131.492V131.46Z" fill="white" fill-opacity="0.3"/>
<path d="M409.328 331.46L408.263 330.847C406.718 330.134 405.364 329.067 404.31 327.732C403.255 326.397 402.531 324.832 402.195 323.165L401.13 317.936C401.078 317.674 400.937 317.438 400.731 317.267C400.525 317.097 400.267 317.002 400 317C399.731 316.996 399.47 317.088 399.263 317.26C399.055 317.431 398.916 317.671 398.87 317.936L397.805 323.197C397.465 324.859 396.738 326.417 395.684 327.746C394.63 329.075 393.278 330.137 391.737 330.847L390.672 331.363C390.472 331.452 390.302 331.597 390.183 331.78C390.064 331.963 390 332.177 390 332.396C390 332.615 390.064 332.829 390.183 333.012C390.302 333.196 390.472 333.34 390.672 333.429L391.737 333.945C393.282 334.658 394.636 335.725 395.69 337.06C396.745 338.395 397.469 339.96 397.805 341.627L398.87 346.985C398.917 347.247 399.057 347.483 399.265 347.649C399.473 347.816 399.734 347.901 400 347.889C400.264 347.894 400.522 347.807 400.728 347.641C400.935 347.476 401.077 347.244 401.13 346.985L402.195 341.724C402.535 340.062 403.262 338.504 404.316 337.175C405.37 335.846 406.722 334.784 408.263 334.074L409.328 333.558C409.528 333.469 409.698 333.325 409.817 333.141C409.936 332.958 410 332.744 410 332.525C410 332.306 409.936 332.092 409.817 331.909C409.698 331.726 409.528 331.581 409.328 331.492V331.46Z" fill="white" fill-opacity="0.3"/>
<path d="M292.597 425.676L291.958 425.308C291.031 424.88 290.218 424.24 289.586 423.439C288.953 422.638 288.518 421.699 288.317 420.699L287.678 417.562C287.647 417.404 287.562 417.263 287.439 417.16C287.315 417.058 287.16 417.001 287 417C286.839 416.998 286.682 417.053 286.558 417.156C286.433 417.259 286.35 417.403 286.322 417.562L285.683 420.718C285.479 421.715 285.043 422.65 284.41 423.448C283.778 424.245 282.967 424.882 282.042 425.308L281.403 425.618C281.283 425.671 281.181 425.758 281.11 425.868C281.038 425.978 281 426.106 281 426.238C281 426.369 281.038 426.497 281.11 426.607C281.181 426.717 281.283 426.804 281.403 426.857L282.042 427.167C282.969 427.595 283.782 428.235 284.414 429.036C285.047 429.837 285.482 430.776 285.683 431.776L286.322 434.991C286.35 435.148 286.434 435.29 286.559 435.39C286.684 435.489 286.84 435.54 287 435.533C287.159 435.536 287.313 435.484 287.437 435.385C287.561 435.286 287.646 435.146 287.678 434.991L288.317 431.834C288.521 430.837 288.957 429.902 289.59 429.105C290.222 428.308 291.033 427.671 291.958 427.245L292.597 426.935C292.717 426.882 292.819 426.795 292.89 426.685C292.962 426.575 293 426.446 293 426.315C293 426.184 292.962 426.055 292.89 425.945C292.819 425.835 292.717 425.749 292.597 425.695V425.676Z" fill="white" fill-opacity="0.3"/>
<path d="M111.731 187.784L111.305 187.539C110.687 187.254 110.146 186.827 109.724 186.293C109.302 185.759 109.012 185.133 108.878 184.466L108.452 182.374C108.431 182.27 108.375 182.175 108.292 182.107C108.21 182.039 108.107 182.001 108 182C107.892 181.998 107.788 182.035 107.705 182.104C107.622 182.173 107.567 182.268 107.548 182.374L107.122 184.479C106.986 185.144 106.695 185.767 106.274 186.298C105.852 186.83 105.311 187.255 104.695 187.539L104.269 187.745C104.189 187.781 104.121 187.839 104.073 187.912C104.025 187.985 104 188.071 104 188.158C104 188.246 104.025 188.332 104.073 188.405C104.121 188.478 104.189 188.536 104.269 188.572L104.695 188.778C105.313 189.063 105.854 189.49 106.276 190.024C106.698 190.558 106.988 191.184 107.122 191.851L107.548 193.994C107.567 194.099 107.623 194.193 107.706 194.26C107.789 194.326 107.894 194.36 108 194.356C108.106 194.358 108.209 194.323 108.291 194.257C108.374 194.191 108.431 194.098 108.452 193.994L108.878 191.89C109.014 191.225 109.305 190.602 109.726 190.07C110.148 189.539 110.689 189.114 111.305 188.83L111.731 188.623C111.811 188.588 111.879 188.53 111.927 188.457C111.975 188.383 112 188.298 112 188.21C112 188.123 111.975 188.037 111.927 187.964C111.879 187.89 111.811 187.832 111.731 187.797V187.784Z" fill="white" fill-opacity="0.3"/>
<path d="M247.664 114.23L247.131 113.923C246.359 113.567 245.682 113.033 245.155 112.366C244.628 111.699 244.265 110.916 244.097 110.082L243.565 107.468C243.539 107.337 243.469 107.219 243.366 107.134C243.263 107.048 243.134 107.001 243 107C242.866 106.998 242.735 107.044 242.631 107.13C242.528 107.216 242.458 107.336 242.435 107.468L241.903 110.099C241.732 110.929 241.369 111.709 240.842 112.373C240.315 113.037 239.639 113.569 238.869 113.923L238.336 114.182C238.236 114.226 238.151 114.298 238.091 114.39C238.032 114.482 238 114.589 238 114.698C238 114.807 238.032 114.914 238.091 115.006C238.151 115.098 238.236 115.17 238.336 115.214L238.869 115.473C239.641 115.829 240.318 116.363 240.845 117.03C241.372 117.697 241.735 118.48 241.903 119.314L242.435 121.993C242.459 122.124 242.529 122.242 242.633 122.325C242.736 122.408 242.867 122.45 243 122.444C243.132 122.447 243.261 122.403 243.364 122.321C243.467 122.238 243.538 122.122 243.565 121.993L244.097 119.362C244.268 118.531 244.631 117.752 245.158 117.088C245.685 116.423 246.361 115.892 247.131 115.537L247.664 115.279C247.764 115.235 247.849 115.162 247.909 115.071C247.968 114.979 248 114.872 248 114.763C248 114.653 247.968 114.546 247.909 114.455C247.849 114.363 247.764 114.29 247.664 114.246V114.23Z" fill="white"/>
<path d="M314.731 383.784L314.305 383.539C313.687 383.254 313.146 382.827 312.724 382.293C312.302 381.759 312.012 381.133 311.878 380.466L311.452 378.374C311.431 378.27 311.375 378.175 311.292 378.107C311.21 378.039 311.107 378.001 311 378C310.892 377.998 310.788 378.035 310.705 378.104C310.622 378.173 310.567 378.268 310.548 378.374L310.122 380.479C309.986 381.144 309.695 381.767 309.274 382.298C308.852 382.83 308.311 383.255 307.695 383.539L307.269 383.745C307.189 383.781 307.121 383.839 307.073 383.912C307.025 383.985 307 384.071 307 384.158C307 384.246 307.025 384.332 307.073 384.405C307.121 384.478 307.189 384.536 307.269 384.572L307.695 384.778C308.313 385.063 308.854 385.49 309.276 386.024C309.698 386.558 309.988 387.184 310.122 387.851L310.548 389.994C310.567 390.099 310.623 390.193 310.706 390.26C310.789 390.326 310.894 390.36 311 390.356C311.106 390.358 311.209 390.323 311.291 390.257C311.374 390.191 311.431 390.098 311.452 389.994L311.878 387.89C312.014 387.225 312.305 386.602 312.726 386.07C313.148 385.539 313.689 385.114 314.305 384.83L314.731 384.623C314.811 384.588 314.879 384.53 314.927 384.457C314.975 384.383 315 384.298 315 384.21C315 384.123 314.975 384.037 314.927 383.964C314.879 383.89 314.811 383.832 314.731 383.797V383.784Z" fill="white"/>
<path d="M256.22 384.175C326.9 384.175 384.198 326.877 384.198 256.196C384.198 185.516 326.9 128.218 256.22 128.218C185.539 128.218 128.241 185.516 128.241 256.196C128.241 326.877 185.539 384.175 256.22 384.175Z" fill="#349EFE"/>
<path d="M148.848 186.58C153.548 179.304 158.985 172.529 165.071 166.364C171.384 169.918 202.45 172.615 223.23 169.207C231.593 167.828 247.356 166.281 261.53 155.535C274.617 145.605 290.066 136.553 296.296 134.65C302.866 136.819 309.25 139.517 315.383 142.72C298.707 168.487 272.727 186.821 242.861 193.897C205.126 202.782 195.238 190.866 177.948 188.148C163.001 185.807 153.363 189.591 148.848 186.58Z" fill="#95CDFF"/>
<path d="M129.343 272.963C127.197 256.948 128.126 240.671 132.081 225.005C141.384 233.493 165.593 222.224 180.896 224.859C212.108 230.252 237.007 234.036 256.617 227.806C284.421 218.963 297.947 198.204 315.195 192.622C335.411 186.058 349.125 182.085 351.801 171.068C359.807 180.044 366.5 190.109 371.682 200.963C334.574 265.228 159.28 293.429 129.343 272.963ZM382.616 276.433L382.595 276.454C373.543 287.597 368.776 287.388 358.323 296.921C347.87 306.454 338.358 322.865 311.62 332.44C288.519 340.697 273.091 333.339 244.199 334.969C209.558 336.934 184.847 345.338 157.774 338.001C151.831 330.861 146.686 323.094 142.43 314.837C159.74 321.966 184.743 322.091 214.513 318.182C235.032 315.538 254.546 307.734 271.23 295.499C301.292 274.447 325.418 281.137 343.02 276.266C369.989 268.803 380.462 253.144 383.975 248.524C384.553 257.849 384.097 267.209 382.616 276.433Z" fill="#4B69D5"/>
<path d="M132.081 225.005C135.527 211.365 141.192 198.383 148.848 186.58C153.363 189.591 163.001 185.807 177.948 188.148C195.237 190.866 205.126 202.782 242.861 193.897C272.726 186.821 298.707 168.487 315.383 142.72C329.131 149.89 341.468 159.486 351.801 171.047V171.068C349.125 182.085 335.411 186.057 315.195 192.622C297.947 198.204 284.421 218.963 256.617 227.806C237.007 234.036 212.108 230.252 180.896 224.859C165.593 222.224 141.384 233.493 132.081 225.005Z" fill="#3053BD"/>
<path d="M382.595 276.454C379.792 293.894 373.407 310.565 363.842 325.415C363.842 325.421 363.84 325.426 363.836 325.43C363.832 325.434 363.827 325.436 363.821 325.436C323.536 354.83 256.178 379.498 200.568 371.429C200.548 371.408 200.548 371.408 200.527 371.408C184.052 363.455 169.474 352.063 157.774 338C184.847 345.338 209.558 336.934 244.199 334.969C273.09 333.338 288.519 340.697 311.62 332.44C338.358 322.865 347.87 306.454 358.323 296.921C368.776 287.388 373.543 287.597 382.595 276.454ZM142.43 314.837C138.263 306.699 134.97 298.142 132.604 289.311C131.154 283.94 130.064 278.479 129.343 272.963C159.28 293.429 334.574 265.228 371.682 200.963C378.793 215.881 382.966 232.028 383.975 248.524C380.462 253.144 369.989 268.802 343.02 276.266C325.418 281.137 301.292 274.447 271.23 295.499C254.546 307.734 235.032 315.538 214.513 318.182C184.743 322.091 159.739 321.966 142.43 314.837Z" fill="#82C3FF"/>
<path d="M327.128 299.992C329.043 307.139 319.457 317.636 306.531 321.107C293.605 324.577 281.576 321.583 279.661 314.436C277.746 307.288 286.631 296.36 299.557 292.903C315.51 288.613 325.209 292.844 327.128 299.992Z" fill="#82C3FF"/>
<path d="M309.079 309.839C311.94 308.832 313.729 306.511 313.076 304.655C312.422 302.799 309.573 302.112 306.712 303.119C303.851 304.127 302.062 306.448 302.715 308.303C303.369 310.159 306.218 310.847 309.079 309.839Z" fill="#3053BD"/>
<path fill-rule="evenodd" clip-rule="evenodd" d="M332.303 153.188L332.114 152.591L331.059 149.253C330.078 149.564 329.091 149.882 328.099 150.209C329.521 151.175 330.923 152.168 332.303 153.188ZM131.583 285.101C131.917 286.551 132.277 287.991 132.66 289.421L132.617 289.387L129.885 287.2C130.443 286.502 131.009 285.802 131.583 285.101ZM406.132 160.26L409.505 159.326C408.846 156.946 407.843 154.755 406.481 152.769C405.12 150.784 403.437 149.058 401.455 147.586L399.368 150.395L397.281 153.205C398.674 154.24 399.807 155.413 400.708 156.728C401.61 158.043 402.296 159.522 402.76 161.195L406.132 160.26ZM387.473 145.527L388.155 142.094C383.857 141.24 379.019 140.892 373.71 141.029L373.801 144.528L373.891 148.026C378.799 147.9 383.105 148.228 386.791 148.96L387.473 145.527ZM359.808 145.866L359.269 142.408C354.744 143.114 349.989 144.083 345.032 145.305L345.87 148.703L346.708 152.101C351.491 150.922 356.046 149.996 360.348 149.324L359.808 145.866ZM124.033 300.818L121.165 298.812C118.239 302.995 115.623 307.081 113.333 311.047L116.365 312.797L119.396 314.547C121.573 310.776 124.078 306.86 126.901 302.824L124.033 300.818ZM110.074 325.367L106.842 324.022C104.801 328.924 103.383 333.562 102.63 337.88L106.078 338.481L109.527 339.082C110.172 335.38 111.418 331.245 113.305 326.712L110.074 325.367ZM105.984 358.822C104.623 356.837 103.62 354.645 102.961 352.266L106.333 351.331L109.706 350.396C110.17 352.07 110.856 353.549 111.758 354.863C112.659 356.178 113.791 357.351 115.185 358.386L113.098 361.196L111.011 364.005C109.029 362.533 107.346 360.807 105.984 358.822ZM124.993 366.065L124.311 369.497C128.609 370.351 133.447 370.7 138.756 370.563L138.665 367.064L138.575 363.565C133.666 363.692 129.361 363.364 125.675 362.632L124.993 366.065ZM152.658 365.725L153.197 369.183C157.722 368.477 162.477 367.509 167.433 366.287L166.596 362.889L165.758 359.49C160.975 360.669 156.42 361.595 152.118 362.267L152.658 365.725ZM180.352 359.001L181.407 362.338C185.86 360.929 190.437 359.347 195.12 357.595L193.894 354.317L192.668 351.039C188.09 352.751 183.627 354.294 179.296 355.664L180.352 359.001ZM207.238 348.986L208.605 352.208C212.954 350.363 217.375 348.386 221.858 346.282L220.37 343.114L218.883 339.946C214.477 342.014 210.136 343.954 205.871 345.764L207.238 348.986ZM233.284 336.778L234.878 339.894C239.112 337.728 243.387 335.457 247.695 333.081L246.005 330.016L244.315 326.951C240.069 329.292 235.858 331.53 231.69 333.662L233.284 336.778ZM258.536 322.863L260.315 325.877C264.426 323.451 268.558 320.935 272.701 318.331L270.839 315.368L268.977 312.404C264.888 314.973 260.812 317.456 256.757 319.849L258.536 322.863ZM282.95 307.528L284.891 310.441C286.897 309.103 288.905 307.746 290.912 306.37C292.92 304.993 294.909 303.61 296.879 302.22L294.862 299.36L292.845 296.5C290.899 297.872 288.935 299.238 286.953 300.597C284.971 301.956 282.989 303.296 281.009 304.616L282.95 307.528ZM306.539 290.888L308.632 293.693C312.554 290.766 316.39 287.819 320.135 284.858L317.964 282.113L315.794 279.367C312.1 282.287 308.316 285.195 304.445 288.083L306.539 290.888ZM329.153 273.001L331.403 275.682C335.171 272.52 338.831 269.35 342.376 266.181L340.044 263.572L337.712 260.962C334.221 264.082 330.616 267.204 326.903 270.32L329.153 273.001ZM350.608 253.809L353.027 256.338C356.605 252.915 360.042 249.503 363.331 246.111L360.818 243.675L358.305 241.239C355.08 244.565 351.706 247.916 348.189 251.28L350.608 253.809ZM382.581 224.392C379.663 228.038 376.537 231.736 373.216 235.474L370.6 233.149L367.983 230.824C371.23 227.17 374.278 223.563 377.116 220.017L379.849 222.204L382.581 224.392ZM388.433 210.774L391.301 212.78C394.227 208.597 396.843 204.51 399.133 200.544L396.101 198.794L393.07 197.045C390.893 200.816 388.388 204.731 385.565 208.767L388.433 210.774ZM402.392 186.224L405.624 187.57C407.665 182.667 409.083 178.029 409.835 173.712L406.387 173.111L402.939 172.51C402.294 176.212 401.048 180.346 399.161 184.879L402.392 186.224Z" fill="white" fill-opacity="0.4"/>
<path d="M317.206 279.107C316.839 279.165 316.625 278.708 316.903 278.464L335.341 262.313C348.781 250.539 358.917 235.46 364.744 218.569L381.886 212.034L401.461 222.675C388.982 251.322 362.806 271.671 331.967 276.698L317.206 279.107Z" fill="#DDEFFF"/>
<path d="M317.051 279.1C316.786 279.03 316.667 278.671 316.903 278.464L337.978 266.93C355.475 257.306 368.997 241.795 376.144 223.148L380.121 212.706L381.886 212.034L391.262 217.13L382.899 234.841C373.797 250.971 359.259 263.343 341.88 269.75L317.051 279.1Z" fill="white"/>
<circle cx="384" cy="223" r="20" fill="white"/>
</svg>
