<svg width="2830" height="1760" viewBox="0 0 2830 1760" fill="none" xmlns="http://www.w3.org/2000/svg">
<path d="M2824.87 1527.08C2830.44 1456.94 2830.77 1386.48 2825.86 1316.3L1415.1 1415.09L2824.87 1527.08Z" fill="url(#paint0_linear_1275_11235)"/>
<path d="M2805.82 1158.39C2793.05 1089.2 2775.13 1021.05 2752.21 954.531L1415.1 1415.09L2805.82 1158.39Z" fill="url(#paint1_linear_1275_11235)"/>
<path d="M2691.99 807.19C2661.75 743.663 2626.8 682.481 2587.45 624.155L1415.1 1415.09L2691.99 807.19Z" fill="url(#paint2_linear_1275_11235)"/>
<path d="M2491.14 497.421C2445.49 443.886 2395.9 393.832 2342.79 347.678L1415.09 1415.09L2491.14 497.421Z" fill="url(#paint3_linear_1275_11235)"/>
<path d="M2216.97 250.187C2159.01 210.293 2098.16 174.78 2034.92 143.943L1415.1 1415.09L2216.97 250.187Z" fill="url(#paint4_linear_1275_11235)"/>
<path d="M1888.15 82.3424C1821.84 58.8076 1753.87 40.2539 1684.8 26.8358L1415.1 1415.09L1888.15 82.3424Z" fill="url(#paint5_linear_1275_11235)"/>
<path d="M1527.08 5.30524C1456.94 -0.26629 1386.49 -0.595828 1316.3 4.31937L1415.1 1415.08L1527.08 5.30524Z" fill="url(#paint6_linear_1275_11235)"/>
<path d="M1158.39 24.3658C1089.2 37.1373 1021.06 55.0544 954.538 77.9679L1415.1 1415.09L1158.39 24.3658Z" fill="url(#paint7_linear_1275_11235)"/>
<path d="M807.193 138.201C743.666 168.445 682.484 203.388 624.158 242.739L1415.1 1415.09L807.193 138.201Z" fill="url(#paint8_linear_1275_11235)"/>
<path d="M497.423 339.047C443.888 384.703 393.835 434.29 347.681 487.396L1415.1 1415.09L497.423 339.047Z" fill="url(#paint9_linear_1275_11235)"/>
<path d="M250.188 613.223C210.294 671.179 174.78 732.031 143.943 795.273L1415.09 1415.09L250.188 613.223Z" fill="url(#paint10_linear_1275_11235)"/>
<path d="M82.3415 942.046C58.8067 1008.35 40.2529 1076.32 26.8348 1145.39L1415.09 1415.09L82.3415 942.046Z" fill="url(#paint11_linear_1275_11235)"/>
<path d="M5.32477 1303.11C-0.246759 1373.25 -0.576297 1443.7 4.3389 1513.89L1415.1 1415.09L5.32477 1303.11Z" fill="url(#paint12_linear_1275_11235)"/>
<defs>
<linearGradient id="paint0_linear_1275_11235" x1="993.243" y1="633.671" x2="2229.62" y2="1062.53" gradientUnits="userSpaceOnUse">
<stop stop-color="white" stop-opacity="0.2"/>
<stop offset="1" stop-color="white" stop-opacity="0"/>
</linearGradient>
<linearGradient id="paint1_linear_1275_11235" x1="805.37" y1="769.482" x2="2110.61" y2="863.731" gradientUnits="userSpaceOnUse">
<stop stop-color="white" stop-opacity="0.2"/>
<stop offset="1" stop-color="white" stop-opacity="0"/>
</linearGradient>
<linearGradient id="paint2_linear_1275_11235" x1="659.053" y1="949.291" x2="1944.22" y2="702.507" gradientUnits="userSpaceOnUse">
<stop stop-color="white" stop-opacity="0.2"/>
<stop offset="1" stop-color="white" stop-opacity="0"/>
</linearGradient>
<linearGradient id="paint3_linear_1275_11235" x1="564.251" y1="1160.84" x2="1741.75" y2="589.844" gradientUnits="userSpaceOnUse">
<stop stop-color="white" stop-opacity="0.2"/>
<stop offset="1" stop-color="white" stop-opacity="0"/>
</linearGradient>
<linearGradient id="paint4_linear_1275_11235" x1="527.443" y1="1389.72" x2="1517.04" y2="533.418" gradientUnits="userSpaceOnUse">
<stop stop-color="white" stop-opacity="0.2"/>
<stop offset="1" stop-color="white" stop-opacity="0"/>
</linearGradient>
<linearGradient id="paint5_linear_1275_11235" x1="551.122" y1="1620.33" x2="1285.37" y2="537.078" gradientUnits="userSpaceOnUse">
<stop stop-color="white" stop-opacity="0.2"/>
<stop offset="1" stop-color="white" stop-opacity="0"/>
</linearGradient>
<linearGradient id="paint6_linear_1275_11235" x1="633.677" y1="1836.93" x2="1062.54" y2="600.557" gradientUnits="userSpaceOnUse">
<stop stop-color="white" stop-opacity="0.2"/>
<stop offset="1" stop-color="white" stop-opacity="0"/>
</linearGradient>
<linearGradient id="paint7_linear_1275_11235" x1="769.489" y1="2024.81" x2="863.738" y2="719.568" gradientUnits="userSpaceOnUse">
<stop stop-color="white" stop-opacity="0.2"/>
<stop offset="1" stop-color="white" stop-opacity="0"/>
</linearGradient>
<linearGradient id="paint8_linear_1275_11235" x1="949.294" y1="2171.14" x2="702.51" y2="885.977" gradientUnits="userSpaceOnUse">
<stop stop-color="white" stop-opacity="0.2"/>
<stop offset="1" stop-color="white" stop-opacity="0"/>
</linearGradient>
<linearGradient id="paint9_linear_1275_11235" x1="1160.85" y1="2265.94" x2="589.846" y2="1088.44" gradientUnits="userSpaceOnUse">
<stop stop-color="white" stop-opacity="0.2"/>
<stop offset="1" stop-color="white" stop-opacity="0"/>
</linearGradient>
<linearGradient id="paint10_linear_1275_11235" x1="1389.72" y1="2302.75" x2="533.419" y2="1313.16" gradientUnits="userSpaceOnUse">
<stop stop-color="white" stop-opacity="0.2"/>
<stop offset="1" stop-color="white" stop-opacity="0"/>
</linearGradient>
<linearGradient id="paint11_linear_1275_11235" x1="1620.33" y1="2279.07" x2="537.077" y2="1544.83" gradientUnits="userSpaceOnUse">
<stop stop-color="white" stop-opacity="0.2"/>
<stop offset="1" stop-color="white" stop-opacity="0"/>
</linearGradient>
<linearGradient id="paint12_linear_1275_11235" x1="1836.95" y1="2196.51" x2="600.577" y2="1767.65" gradientUnits="userSpaceOnUse">
<stop stop-color="white" stop-opacity="0.2"/>
<stop offset="1" stop-color="white" stop-opacity="0"/>
</linearGradient>
</defs>
</svg>
