<svg width="22" height="24" viewBox="0 0 22 24" fill="none" xmlns="http://www.w3.org/2000/svg">
<g clip-path="url(#clip0_463_3682)">
<path d="M15.7536 4.95097C15.6688 4.69046 15.4434 4.50045 15.1727 4.46113L12.5952 4.08653L11.4422 1.75068C11.3213 1.50516 11.0711 1.34961 10.797 1.34961C10.523 1.34961 10.2727 1.50516 10.1519 1.75068L8.99881 4.08658L6.42096 4.46118C6.15013 4.50054 5.92476 4.6905 5.83998 4.95102C5.75521 5.21154 5.82593 5.49758 6.02225 5.68874L7.88799 7.50691L7.44713 10.074C7.40073 10.3441 7.5118 10.6171 7.73343 10.778C7.95554 10.9397 8.24931 10.9596 8.49153 10.8329L10.7972 9.62075L13.1024 10.8329C13.3502 10.9628 13.6429 10.936 13.8605 10.778C14.0821 10.6171 14.1932 10.3442 14.1468 10.0743L13.7064 7.50691L15.5717 5.68874C15.7677 5.49758 15.838 5.21149 15.7536 4.95097Z" fill="white"/>
<path d="M13.6743 12.3145H7.91695C7.51949 12.3145 7.19727 12.6367 7.19727 13.0341V23.3494H14.394V13.0341C14.394 12.6367 14.0718 12.3145 13.6743 12.3145Z" fill="white"/>
<path d="M0.71968 15.1934C0.322221 15.1934 0 15.5156 0 15.913V22.7807C0 23.0949 0.25476 23.3496 0.568989 23.3496H5.7574V15.1934H0.71968Z" fill="white"/>
<path d="M20.8717 18.0723H15.834V23.3499H21.0224C21.3367 23.3499 21.5914 23.0951 21.5914 22.7809V18.7919C21.5913 18.3945 21.2691 18.0723 20.8717 18.0723Z" fill="white"/>
</g>
<defs>
<clipPath id="clip0_463_3682">
<rect width="22" height="23" fill="white" transform="translate(0 0.5)"/>
</clipPath>
</defs>
</svg>
