<svg width="2558" height="99" viewBox="0 0 2558 99" fill="none" xmlns="http://www.w3.org/2000/svg">
<path d="M-2.75366 89.1C-4.72046 97.3 11.6704 90.6 17.8335 93C22.1606 93.3 26.7502 92.6 30.8152 92.3C37.5027 93.5 44.5837 92.7 51.4023 92.3C59.9255 91.7 69.498 92.4 77.8904 90.7C85.4958 89.8 93.8879 90.9 101.493 90.5C108.05 89.9 114.475 89.8 120.769 88.6C124.572 87.3 128.899 86.7 133.095 86.9C138.734 85.7 146.339 87.8 152.109 86.6C158.534 85.8 164.96 84.9 171.516 84.8C187.907 85.1 204.691 83.3 221.083 83.8C236.949 82.2 252.816 82.4 268.682 81.2C272.616 81.3 276.943 80.4 280.877 80.5C284.811 80.3 288.22 78 292.285 78.7C296.875 79.3 302.251 78.6 306.709 77.6C309.201 76.9 321.527 77.9 320.216 75C317.593 73.6 301.595 77.4 307.627 73.5C306.185 72.5 300.153 73.7 301.857 71.1C303.693 70.1 305.923 71.4 308.152 70.9C310.774 69.5 313.79 69.3 316.806 69C320.871 68.6 324.674 67.4 328.87 67.6C330.444 67.6 330.968 65.8 332.935 66C338.573 66.7 343.425 67 349.195 66.2C352.08 66.1 353.653 64.6 356.145 63.7C357.325 63.4 356.538 62.2 357.456 61.9C359.161 61.4 361.128 62 362.439 62.8C362.308 63.5 361.128 64.7 363.094 64.7C368.471 63.5 374.24 64.1 379.486 62.3C382.37 61.2 386.042 62.1 388.927 60.7C391.549 60.6 394.565 60.6 397.057 59.7C402.04 59.3 407.154 61.3 412.136 59.6C420.135 59.3 427.61 62.5 435.346 62.4C439.542 58.6 439.805 60 445.05 59.5C448.853 58.8 452.393 60.3 455.933 59.6C457.638 59.6 459.212 61.1 461.047 60.3C463.539 59.5 466.03 60.7 468.522 60.9C470.489 61.2 472.456 60 474.291 60.7C475.34 62.6 475.209 63 478.488 62.4C481.766 61.1 484.913 59.3 488.584 60.5C491.338 60.4 493.174 58 496.059 58.5C498.681 59.6 501.697 59.9 504.582 59.3C510.352 60.9 516.515 61.2 522.416 60C524.776 59.4 527.398 60.2 529.759 59.5C532.25 57.9 535.528 57.1 538.807 57.4C545.625 59.3 553.493 57.1 560.574 57.2C564.114 57.9 567.786 57.6 571.326 58.3C573.687 58.5 575.654 57.1 577.752 58.4C581.554 60.2 584.308 58 587.717 57.2C595.454 57.2 603.059 57.5 610.665 57.6C613.025 57.1 614.205 59.3 616.172 59.7C618.401 59.8 619.582 61.7 621.811 61.6C624.433 60.7 628.367 61.6 630.99 61C634.924 60.1 638.595 58.6 642.922 58.8C645.283 59.2 647.774 58.6 650.003 59.1C651.183 59.9 653.15 60.2 654.462 59.4C654.986 57.6 657.084 58.1 658.92 58.6C659.445 58.8 660.1 58.8 660.756 58.8H667.05C669.542 58.5 673.344 59.3 675.836 59.4C679.376 58.7 682.786 59.3 686.457 59.7C689.473 60.8 692.751 61.3 696.03 61.1C698.914 61.5 701.275 62.9 704.159 63.3C713.338 64.5 725.664 63.8 734.45 61.7C736.81 61.4 739.171 62.3 741.4 62.4C742.973 62.2 744.416 61.1 745.989 61.1C766.577 62.8 787.557 63.6 808.275 64.7C826.633 65.3 849.843 65.1 867.808 65.8C875.938 64.8 894.164 69.8 898.885 65.5L899.934 65.7C900.983 63.7 906.622 66.4 908.851 66.6C916.063 67.3 923.537 69.1 930.88 69C934.29 68.1 929.438 67.8 929.962 66.9C931.143 65.6 927.733 64.3 929.176 63L928.127 62.7C930.88 63.6 933.503 62.5 935.47 61.1C940.846 61.6 946.354 61.8 951.73 61.9C955.008 61.4 957.631 64 961.04 63.7C963.4 62.9 965.236 62.6 967.727 63.3C969.432 63.4 971.006 62.5 972.71 62.9C975.857 65.5 980.578 63.2 984.25 64.3C988.052 64.2 990.413 65 989.888 67.7C989.233 68.3 987.921 67.9 987.266 68.5C989.626 69 992.38 68.1 994.871 68H994.347C996.051 67.8 995.527 66.4 996.969 66C1000.77 65.9 1004.05 69.1 1008.25 68.9C997.494 71.2 1011.26 71.3 1015.33 72.3C1028.44 72.8 1041.16 72.9 1054.27 73.4C1055.71 73.6 1054.8 74.3 1054.27 74.7C1055.45 77.3 1060.04 78 1063.32 78.8C1076.3 79.8 1090.33 78.9 1103.18 80.2C1107.77 81.2 1112.23 81 1116.82 81.5C1120.36 82.4 1122.98 82.8 1126.65 81.9C1129.8 82.1 1132.69 83.8 1135.83 83.9C1137.67 83.1 1139.37 83.9 1141.21 83.9C1141.87 83.7 1143.05 83.3 1143.7 83.6C1151.57 86.1 1160.62 84.7 1168.75 86.2C1190.38 86.2 1211.89 89.1 1233.79 89C1242.7 87 1251.75 88.6 1260.8 89.4C1265.52 90.3 1279.03 89.6 1284.14 89.8C1311.94 92.9 1340 94.8 1368.06 95.7C1374.23 96.7 1380.91 96.3 1387.21 96.8C1391.4 96.3 1396.78 97.8 1400.45 96.6C1405.7 95.4 1412.78 98.1 1418.28 97.3C1424.32 96.2 1430.48 97.9 1436.64 97C1437.82 93.7 1429.3 95.6 1426.68 95C1426.28 95 1425.76 94.8 1425.63 94.6C1425.23 94.3 1424.19 94.2 1424.71 93.7L1425.5 93.2C1425.5 91.8 1421.96 92.9 1421.04 91.5C1420.25 90.5 1421.96 89.6 1423.27 89.9C1428.51 90.7 1434.68 89.2 1440.18 89.7C1443.33 89.2 1446.74 89.1 1449.76 89.8C1452.38 89.1 1455 88.4 1457.89 89C1461.16 91.8 1466.8 89.4 1460.38 92.6C1457.23 95 1451.98 94.1 1448.84 95.8C1450.8 99.7 1461.03 98.8 1465.88 99C1480.05 97.4 1494.86 97.5 1509.16 96.6C1517.29 96.9 1525.15 95.9 1533.15 96.9C1542.07 95.9 1550.86 96.4 1559.9 96C1570 94.2 1579.57 97.4 1589.67 94.7C1595.57 93.3 1603.44 95.7 1609.47 94.1C1613.14 95 1617.47 94.1 1621.27 93.8C1625.86 93.5 1630.45 93.3 1634.65 91.9C1644.09 89.4 1654.84 91.8 1664.54 90.6C1693 87.5 1723.55 88.7 1752.27 86.8C1757.64 86.7 1763.55 85.1 1769.05 86.4C1772.33 86.9 1775.22 88 1778.36 88.6C1780.85 88.7 1784.53 88.4 1786.89 88.8C1793.97 90.1 1800.92 91.7 1808.13 91.9C1812.06 92.9 1815.21 92.4 1819.01 91.9C1826.09 92.6 1834.75 93.4 1841.3 90.4C1844.58 88.9 1848.12 87.4 1849.7 85C1854.68 85.3 1860.06 86.7 1863.86 83C1867.27 80.5 1863.33 75.8 1871.6 76.7C1877.5 77 1885.36 76.5 1890.87 75.1C1894.41 76.8 1913.56 74 1900.84 73.8C1898.48 74.6 1896.38 73.9 1894.41 73.1C1892.58 72.4 1890.61 72.8 1888.64 72.3C1883.27 69.3 1897.95 71.1 1899.66 71.3C1905.43 71.7 1911.46 71.7 1917.1 71.9C1933.75 70.6 1949.88 69.7 1966.4 71.3C1971.65 72 1969.94 69.5 1965.75 69.2C1963.91 68.9 1962.07 69.2 1960.37 69.3C1958.66 68.9 1957.22 68.5 1955.39 68.5C1945.95 67.7 1942.8 65.7 1954.6 66.2C1959.32 66.7 1964.17 67.7 1969.02 67.4C1977.94 67.7 1986.73 68.5 1995.38 67.3C2003.38 68.1 2009.15 65 1996.43 64.3C1992.1 64 1988.04 65.7 1983.84 64.3C1980.04 66.1 1976.37 65.2 1972.56 64.4C1967.45 66.5 1961.81 64.5 1956.44 63.7C1948.83 62.5 1954.73 62 1957.88 61C1964.83 61.2 2006.66 60.9 2011.77 59.6C2012.95 60.3 2011.12 60.8 2010.46 61.2C2008.76 64.9 2016.75 61 2018.85 60.8C2020.29 60.1 2022.26 61.6 2023.7 60.9C2027.11 60.5 2030.13 61.6 2033.67 60.7C2034.72 61.2 2044.95 59.4 2042.19 62.3C2041.93 62.8 2042.85 62.8 2043.37 62.8C2045.34 63 2046.78 61.2 2048.88 61.5C2050.06 61.6 2051.5 62.3 2052.81 62C2056.62 60 2060.68 59.2 2065.01 60.5C2065.93 60.8 2066.71 61.5 2065.53 62C2063.83 65.2 2070.65 61.8 2072.48 62.6C2077.99 63.1 2071.43 66.9 2077.2 66.4C2077.07 65.5 2078.52 64.9 2079.56 65C2085.07 64.7 2092.68 65.6 2098.45 65.2C2099.23 65.2 2100.94 65.2 2100.55 66C2100.02 66.8 2091.76 66.3 2095.69 68.3C2097.53 68.6 2100.15 67.6 2101.99 67.9C2109.07 68.5 2116.15 68.5 2123.23 67.8C2123.62 68.2 2125.85 67.7 2125.2 68.6C2122.31 69.5 2118.64 69.3 2115.63 69.9C2112.87 70.4 2109.72 69.4 2106.97 70.4C2104.22 71 2106.58 72.6 2108.15 72C2120.08 71.1 2131.89 71.2 2143.56 70.5C2162.7 71.7 2161 73.5 2142.38 72.3C2141.59 72.9 2122.97 72.9 2130.44 74.7C2134.9 73.6 2139.75 75 2144.21 75.2H2152.87C2154.83 75.4 2155.75 73.8 2157.59 74.3C2159.82 75.1 2155.36 76 2154.96 76.7C2154.18 77.5 2155.62 78 2156.27 78.3C2166.63 81.6 2177.26 86.2 2188.93 86.5C2196.53 88.7 2205.05 87.4 2212.79 86.5C2218.56 86.5 2223.41 84.2 2228.92 83.4C2230.89 81.7 2233.77 81 2236.53 80.3C2240.59 80.9 2244.66 81.1 2248.72 81.1C2251.21 81.7 2252.79 83.3 2255.41 83.3C2259.6 82.9 2264.32 83.3 2268.13 81.7C2271.67 80.7 2275.86 81.1 2279.4 79.9C2283.86 79.9 2288.58 78.5 2293.04 79.5C2296.84 80.3 2300.52 78 2304.45 78.7C2306.15 78.9 2307.47 80.1 2309.17 80.3C2310.61 80.2 2311.79 79.7 2313.37 79.9C2316.12 81.3 2319.4 82 2322.68 82.1C2324.25 82.6 2325.69 80.9 2326.22 79.9C2329.5 78.7 2333.43 79.5 2336.97 78.8C2341.82 79.2 2346.54 79.9 2351.26 79.3C2353.89 80 2356.9 80.9 2359.66 80C2362.02 79 2363.2 81.7 2365.03 82.2C2368.18 81.7 2370.67 79.3 2373.95 79.2C2377.36 80.6 2380.77 78.1 2384.04 77.8C2386.67 78.1 2388.5 79.8 2391.39 78.7C2394.4 78.6 2397.16 80.2 2399.91 80.7C2405.42 81.2 2410.4 79.8 2415.91 80.4C2419.58 79.4 2422.73 77.5 2426.79 77.9C2437.41 79.2 2448.17 76.7 2458.79 78.2C2462.07 78.1 2464.43 77.2 2467.18 79C2480.16 77.7 2496.29 75.4 2508.35 81.7C2517.66 82.7 2526.58 78.6 2536.02 79.5C2539.04 79.8 2543.37 82 2544.41 78.8C2545.73 78.8 2546.51 79.5 2547.82 79.5H2552.68C2566.71 87.2 2554.51 0.699997 2558.45 0L-2.75366 0V84.6C-2.49146 84.6 -2.0979 89.2 -2.75366 89.1ZM1014.8 68.8L1015.2 68.7C1014.67 69 1014.02 69.1 1013.36 69L1014.8 68.8ZM1011.92 68.9H1009.82C1010.48 68.8 1011.26 68.8 1011.92 68.9Z" fill="#0E1F33"/>
</svg>
