<svg width="16" height="16" viewBox="0 0 16 16" fill="none" xmlns="http://www.w3.org/2000/svg">
<g clip-path="url(#clip0_48_6893)">
<path d="M10.3263 6.41998C10.2063 4.55998 9.45301 2.74665 8.03967 1.33331C6.61301 2.75998 5.82634 4.57331 5.67301 6.41998C6.52634 6.87331 7.31301 7.45998 7.99967 8.17331C8.68634 7.46665 9.47301 6.87998 10.3263 6.41998ZM5.99301 8.18665C5.89967 8.11998 5.79301 8.05998 5.69301 7.99331C5.79301 8.06665 5.89967 8.11998 5.99301 8.18665ZM10.273 8.01998C10.1863 8.07998 10.093 8.12665 10.0063 8.19331C10.093 8.12665 10.1863 8.07998 10.273 8.01998ZM7.99967 10.3C6.56634 8.11331 4.11967 6.66665 1.33301 6.66665C1.33301 10.2133 3.57301 13.2133 6.68634 14.3266C7.10634 14.48 7.54634 14.5933 7.99967 14.6666C8.45301 14.5866 8.88634 14.4733 9.31301 14.3266C12.4263 13.2133 14.6663 10.2133 14.6663 6.66665C11.8797 6.66665 9.43301 8.11331 7.99967 10.3Z" fill="white"/>
</g>
<defs>
<clipPath id="clip0_48_6893">
<rect width="16" height="16" fill="white"/>
</clipPath>
</defs>
</svg>
