<svg width="16" height="16" viewBox="0 0 16 16" fill="none" xmlns="http://www.w3.org/2000/svg">
<g clip-path="url(#clip0_48_7119)">
<path d="M9.00033 0.446655C9.00033 0.446655 9.49366 2.21332 9.49366 3.64666C9.49366 5.01999 8.59366 6.13332 7.22032 6.13332C5.84033 6.13332 4.80033 5.01999 4.80033 3.64666L4.82033 3.40666C3.47366 5.00666 2.66699 7.07999 2.66699 9.33332C2.66699 12.28 5.05366 14.6667 8.00033 14.6667C10.947 14.6667 13.3337 12.28 13.3337 9.33332C13.3337 5.73999 11.607 2.53332 9.00033 0.446655ZM7.80699 12.6667C6.62033 12.6667 5.66033 11.7333 5.66033 10.5733C5.66033 9.49332 6.36033 8.73332 7.53366 8.49332C8.71366 8.25332 9.93366 7.68666 10.6137 6.77332C10.8737 7.63332 11.007 8.53999 11.007 9.46666C11.007 11.2333 9.57366 12.6667 7.80699 12.6667Z" fill="white"/>
</g>
<defs>
<clipPath id="clip0_48_7119">
<rect width="16" height="16" fill="white"/>
</clipPath>
</defs>
</svg>
