<svg width="126" height="46" viewBox="0 0 126 46" fill="none" xmlns="http://www.w3.org/2000/svg">
<path d="M0 6C0 2.68629 2.68629 0 6 0H120C123.314 0 126 2.68629 126 6V40C126 43.3137 123.314 46 120 46H6C2.68629 46 0 43.3137 0 40V6Z" fill="#0C1A2B"/>
<path d="M33.7544 8H9.5C8.11929 8 7 9.11929 7 10.5C7 11.8807 8.11929 13 9.5 13H33.7544C35.1351 13 36.2544 11.8807 36.2544 10.5C36.2544 9.11929 35.1351 8 33.7544 8Z" fill="#E6E6E6"/>
<path d="M65.5523 20.7749H9.5C8.11929 20.7749 7 21.8942 7 23.2749C7 24.6556 8.11929 25.7749 9.5 25.7749H65.5523C66.933 25.7749 68.0523 24.6556 68.0523 23.2749C68.0523 21.8942 66.933 20.7749 65.5523 20.7749Z" fill="#33C47F"/>
<path d="M65.5523 33.5498H9.5C8.11929 33.5498 7 34.6691 7 36.0498C7 37.4305 8.11929 38.5498 9.5 38.5498H65.5523C66.933 38.5498 68.0523 37.4305 68.0523 36.0498C68.0523 34.6691 66.933 33.5498 65.5523 33.5498Z" fill="#E6E6E6"/>
</svg>
