<svg width="20" height="20" viewBox="0 0 20 20" fill="none" xmlns="http://www.w3.org/2000/svg">
<g clip-path="url(#clip0_1186_22631)">
<path d="M10.9772 0V2.02303C12.9178 2.26206 14.7041 3.20249 15.9994 4.66717C17.2948 6.13185 18.0098 8.01966 18.0098 9.97496C18.0098 11.9303 17.2948 13.8181 15.9994 15.2828C14.7041 16.7474 12.9178 17.6879 10.9772 17.9269V19.9299C13.4478 19.6819 15.7381 18.525 17.4039 16.6837C19.0696 14.8424 19.992 12.4479 19.992 9.96495C19.992 7.48197 19.0696 5.08752 17.4039 3.2462C15.7381 1.40488 13.4478 0.247987 10.9772 0ZM8.97419 0.0300451C7.01456 0.214182 5.15517 0.981664 3.63618 2.23335L5.06833 3.71557C6.19494 2.81312 7.54444 2.2318 8.97419 2.03305V0.0300451ZM2.22406 3.64547C0.971839 5.16509 0.20123 7.02362 0.0107422 8.98348H2.01375C2.20162 7.55794 2.76886 6.20901 3.65621 5.07762L2.22406 3.64547ZM0.0207572 10.9865C0.220272 12.9441 0.989838 14.8001 2.23408 16.3245L3.65621 14.8923C2.77173 13.7603 2.2079 12.4112 2.02376 10.9865H0.0207572ZM5.06833 16.3645L3.63618 17.7366C5.15324 19.0012 7.01051 19.7887 8.97419 20V17.997C7.54943 17.8129 6.20038 17.249 5.06833 16.3645ZM10.4764 4.97747V10.2354L14.9832 12.9094L14.2321 14.1412L8.97419 10.9865V4.97747H10.4764Z" fill="#99ABBF"/>
</g>
<defs>
<clipPath id="clip0_1186_22631">
<rect width="20" height="20" fill="white"/>
</clipPath>
</defs>
</svg>
