<svg width="32" height="33" viewBox="0 0 32 33" fill="none" xmlns="http://www.w3.org/2000/svg">
<g clip-path="url(#clip0_1186_23438)">
<g clip-path="url(#clip1_1186_23438)">
<path d="M31.9857 19.8898V13.8898H28.9857V10.7518C29.7464 10.5544 30.4322 10.1378 30.958 9.55373C31.4837 8.96967 31.8262 8.24394 31.9427 7.4668L29.9687 7.1848C29.9184 7.54077 29.7731 7.87661 29.548 8.15696C29.3229 8.43731 29.0265 8.6518 28.6898 8.77788C28.3531 8.90395 27.9886 8.93694 27.6348 8.87338C27.2809 8.80981 26.9508 8.65204 26.679 8.41666C26.4073 8.18128 26.204 7.877 26.0905 7.53585C25.9771 7.19469 25.9578 6.82927 26.0345 6.47804C26.1112 6.1268 26.2812 5.80275 26.5266 5.53997C26.7719 5.27719 27.0836 5.0854 27.4287 4.9848L26.8637 3.0698C26.0272 3.31628 25.2946 3.83023 24.7781 4.53289C24.2616 5.23555 23.9898 6.08817 24.0042 6.96011C24.0186 7.83205 24.3185 8.67522 24.8579 9.36042C25.3973 10.0456 26.1465 10.5351 26.9907 10.7538V13.8898H17.0007V11.7498C17.9434 11.5064 18.7649 10.9276 19.3113 10.1218C19.8577 9.31601 20.0915 8.33861 19.9688 7.3728C19.8462 6.40698 19.3755 5.51906 18.645 4.87547C17.9145 4.23188 16.9743 3.87681 16.0007 3.87681C15.0272 3.87681 14.087 4.23188 13.3565 4.87547C12.626 5.51906 12.1553 6.40698 12.0326 7.3728C11.9099 8.33861 12.1437 9.31601 12.6901 10.1218C13.2365 10.9276 14.0581 11.5064 15.0007 11.7498V13.8898H5.01173V8.7558C5.95439 8.5124 6.77592 7.93357 7.32233 7.12779C7.86874 6.32201 8.10252 5.34461 7.97985 4.3788C7.85717 3.41298 7.38647 2.52506 6.65596 1.88147C5.92546 1.23788 4.9853 0.882813 4.01173 0.882812C3.03816 0.882813 2.098 1.23788 1.3675 1.88147C0.63699 2.52506 0.166284 3.41298 0.0436097 4.3788C-0.0790648 5.34461 0.154714 6.32201 0.701127 7.12779C1.24754 7.93357 2.06907 8.5124 3.01173 8.7558V13.8898H0.0117285V19.8898H9.00773V22.0298C8.06507 22.2732 7.24354 22.852 6.69713 23.6578C6.15071 24.4636 5.91694 25.441 6.03961 26.4068C6.16228 27.3726 6.63299 28.2605 7.3635 28.9041C8.094 29.5477 9.03415 29.9028 10.0077 29.9028C10.9813 29.9028 11.9215 29.5477 12.652 28.9041C13.3825 28.2605 13.8532 27.3726 13.9758 26.4068C14.0985 25.441 13.8647 24.4636 13.3183 23.6578C12.7719 22.852 11.9504 22.2732 11.0077 22.0298V19.8898H20.9977V25.0268C20.0551 25.2702 19.2335 25.849 18.6871 26.6548C18.1407 27.4606 17.9069 28.438 18.0296 29.4038C18.1523 30.3696 18.623 31.2575 19.3535 31.9011C20.084 32.5447 21.0242 32.8998 21.9977 32.8998C22.9713 32.8998 23.9115 32.5447 24.642 31.9011C25.3725 31.2575 25.8432 30.3696 25.9658 29.4038C26.0885 28.438 25.8547 27.4606 25.3083 26.6548C24.7619 25.849 23.9404 25.2702 22.9977 25.0268V19.8898H31.9857ZM25.9917 15.8898H29.9917V17.8898H25.9917V15.8898ZM14.0027 7.8988C14.0027 7.50323 14.12 7.11655 14.3398 6.78766C14.5596 6.45876 14.8719 6.20241 15.2374 6.05104C15.6028 5.89966 16.0049 5.86005 16.3929 5.93723C16.7809 6.0144 17.1372 6.20488 17.4169 6.48458C17.6966 6.76429 17.8871 7.12065 17.9643 7.50862C18.0415 7.89658 18.0019 8.29871 17.8505 8.66416C17.6991 9.02961 17.4428 9.34197 17.1139 9.56174C16.785 9.7815 16.3983 9.8988 16.0027 9.8988C15.4723 9.8988 14.9636 9.68808 14.5885 9.31301C14.2134 8.93794 14.0027 8.42923 14.0027 7.8988ZM2.01473 4.8988C2.01473 4.50323 2.13203 4.11655 2.35179 3.78766C2.57155 3.45876 2.88391 3.20241 3.24936 3.05104C3.61481 2.89966 4.01695 2.86005 4.40491 2.93723C4.79287 3.0144 5.14924 3.20488 5.42894 3.48458C5.70865 3.76429 5.89913 4.12065 5.9763 4.50862C6.05347 4.89658 6.01386 5.29871 5.86249 5.66416C5.71111 6.02961 5.45477 6.34197 5.12587 6.56174C4.79697 6.7815 4.41029 6.8988 4.01473 6.8988C3.48481 6.8988 2.97656 6.68849 2.60157 6.31407C2.22659 5.93965 2.01552 5.43171 2.01473 4.9018V4.8988ZM6.01073 17.8898H2.01073V15.8898H6.01073V17.8898ZM12.0047 25.8818C12.0047 26.2774 11.8874 26.664 11.6677 26.9929C11.4479 27.3218 11.1355 27.5782 10.7701 27.7296C10.4046 27.8809 10.0025 27.9205 9.61455 27.8434C9.22659 27.7662 8.87022 27.5757 8.59052 27.296C8.31081 27.0163 8.12033 26.6599 8.04316 26.272C7.96599 25.884 8.00559 25.4819 8.15697 25.1164C8.30834 24.751 8.56469 24.4386 8.89359 24.2189C9.22249 23.9991 9.60917 23.8818 10.0047 23.8818C10.535 23.8818 11.0435 24.0924 11.4186 24.4672C11.7936 24.8421 12.0045 25.3505 12.0047 25.8808V25.8818ZM12.0047 17.8898H8.00473V15.8898H12.0047V17.8898ZM17.9987 17.8898H13.9987V15.8898H17.9987V17.8898ZM23.9927 28.8788C23.9927 29.2744 23.8754 29.661 23.6557 29.9899C23.4359 30.3188 23.1235 30.5752 22.7581 30.7266C22.3926 30.8779 21.9905 30.9175 21.6025 30.8404C21.2146 30.7632 20.8582 30.5727 20.5785 30.293C20.2988 30.0133 20.1083 29.6569 20.0312 29.269C19.954 28.881 19.9936 28.4789 20.145 28.1134C20.2963 27.748 20.5527 27.4356 20.8816 27.2159C21.2105 26.9961 21.5972 26.8788 21.9927 26.8788C22.523 26.8788 23.0315 27.0894 23.4066 27.4642C23.7816 27.8391 23.9925 28.3485 23.9927 28.8788ZM19.9967 17.8898V15.8898H23.9967V17.8898H19.9967Z" fill="#6D86A3"/>
<path d="M29.7195 5.90043L31.4485 4.90043C30.9987 4.12701 30.3041 3.52537 29.4745 3.19043L28.7295 5.04343C29.1455 5.21125 29.4938 5.51276 29.7195 5.90043Z" fill="#6D86A3"/>
</g>
</g>
<defs>
<clipPath id="clip0_1186_23438">
<rect width="32" height="32" fill="white" transform="translate(0 0.889648)"/>
</clipPath>
<clipPath id="clip1_1186_23438">
<rect width="31.969" height="32" fill="white" transform="translate(0.015625 0.889648)"/>
</clipPath>
</defs>
</svg>
