<svg width="16" height="14" viewBox="0 0 16 14" fill="none" xmlns="http://www.w3.org/2000/svg">
<path d="M14 0H1.55556C1.143 0 0.747335 0.163888 0.455612 0.455612C0.163888 0.747335 0 1.143 0 1.55556V12.4444C0 12.857 0.163888 13.2527 0.455612 13.5444C0.747335 13.8361 1.143 14 1.55556 14H14C14.4126 14 14.8082 13.8361 15.0999 13.5444C15.3917 13.2527 15.5556 12.857 15.5556 12.4444V1.55556C15.5556 1.143 15.3917 0.747335 15.0999 0.455612C14.8082 0.163888 14.4126 0 14 0ZM7 10.8889H2.33333V9.33333H7V10.8889ZM13.2222 7.77778H2.33333V6.22222H13.2222V7.77778ZM13.2222 4.66667H2.33333V3.11111H13.2222V4.66667Z" fill="#ADBEC6"/>
</svg>
