<svg width="32" height="32" viewBox="0 0 32 32" fill="none" xmlns="http://www.w3.org/2000/svg">
<g clip-path="url(#clip0_1186_22623)">
<path d="M22.8646 29.3546L22.1006 27.3646L24.0906 26.6016L24.8536 28.5916L22.8646 29.3546Z" fill="#6D86A3"/>
<path d="M15.9999 0L0.588867 26.075L15.9999 32L20.8749 30.126L20.1089 28.136L17.0649 29.308V23.068L25.2889 19.906L28.2889 24.99L26.0719 25.842L26.8379 27.831L31.4039 26.074L15.9999 0ZM14.9349 29.308L3.70787 24.99L6.70787 19.906L14.9299 23.068L14.9349 29.308ZM14.9349 20.785L7.81187 18.045L10.3019 13.832L14.9349 15.611V20.785ZM14.9349 13.328L11.4009 11.97L14.9349 5.991V13.328ZM17.0649 5.99L20.5989 11.97L17.0649 13.328V5.99ZM17.0649 20.783V15.611L21.6979 13.832L24.1879 18.045L17.0649 20.783Z" fill="#6D86A3"/>
</g>
<defs>
<clipPath id="clip0_1186_22623">
<rect width="32" height="32" fill="white"/>
</clipPath>
</defs>
</svg>
