<svg width="186" height="48" viewBox="0 0 186 48" fill="none" xmlns="http://www.w3.org/2000/svg">
<g id="g6946">
<path id="path5119" opacity="0.5" d="M25.5 3L3 18.7499V23.9999V29.2499V34.4998V39.7498V44.9998H25.5H48H70.5H93H115.5H138H160.5L183 29.2499V23.9999V18.7499V13.5V8.24998V3H160.5H138H115.5H93H70.5H48H25.5Z" fill="#0C1A2A"/>
<g id="rect5050" filter="url(#filter0_f_1326_13052)">
<path d="M25.5001 3L3 18.7501V23.9999V29.2503V34.5001V39.75V44.9998H25.5001H47.9997H70.4999H93H115.5H138H160.5L183 29.2503V23.9999V18.7501V13.5002V8.25034V3H160.5H138H115.5H93H70.4999H47.9997H25.5001ZM27.9089 6.76998H49.6056H71.3028H93H114.697H136.394H158.091H178.55V9.93007V14.62V19.31V23.9999V27.5426L158.091 41.6128H136.394H114.697H93H71.3028H49.6056H27.9089H7.86331V38.0703V33.3803V28.6899V23.9999V20.3616L27.9089 6.76998Z" fill="#86ABB5"/>
<path d="M25.5001 3L3 18.7501V23.9999V29.2503V34.5001V39.75V44.9998H25.5001H47.9997H70.4999H93H115.5H138H160.5L183 29.2503V23.9999V18.7501V13.5002V8.25034V3H160.5H138H115.5H93H70.4999H47.9997H25.5001ZM27.9089 6.76998H49.6056H71.3028H93H114.697H136.394H158.091H178.55V9.93007V14.62V19.31V23.9999V27.5426L158.091 41.6128H136.394H114.697H93H71.3028H49.6056H27.9089H7.86331V38.0703V33.3803V28.6899V23.9999V20.3616L27.9089 6.76998Z" stroke="#0C1A2A" stroke-width="0.835913"/>
</g>
</g>
<defs>
<filter id="filter0_f_1326_13052" x="0.969143" y="0.969143" width="184.062" height="46.0617" filterUnits="userSpaceOnUse" color-interpolation-filters="sRGB">
<feFlood flood-opacity="0" result="BackgroundImageFix"/>
<feBlend mode="normal" in="SourceGraphic" in2="BackgroundImageFix" result="shape"/>
<feGaussianBlur stdDeviation="0.806444" result="effect1_foregroundBlur_1326_13052"/>
</filter>
</defs>
</svg>
