<svg width="512" height="331" viewBox="0 0 512 331" fill="none" xmlns="http://www.w3.org/2000/svg">
<path d="M306.238 140.223H198.194L181.678 132.129V16.516C181.678 7.39401 189.073 0 198.194 0H313.807L322.755 16.516V123.707C322.754 132.829 315.36 140.223 306.238 140.223Z" fill="#4180DB"/>
<path d="M313.806 0V99.097C313.806 117.34 299.017 132.129 280.774 132.129H181.677C181.677 141.25 189.072 148.645 198.193 148.645H313.806C322.928 148.645 330.322 141.25 330.322 132.129V16.516C330.323 7.39401 322.928 0 313.806 0Z" fill="#255EB0"/>
<path d="M487.916 321.901H379.871L363.355 313.807V198.193C363.355 189.071 370.75 181.677 379.871 181.677H495.484L504.432 198.193V305.384C504.432 314.506 497.037 321.901 487.916 321.901Z" fill="#777777"/>
<path d="M495.484 181.677V280.774C495.484 299.017 480.695 313.806 462.452 313.806H363.355C363.355 322.927 370.75 330.322 379.871 330.322H495.484C504.606 330.322 512 322.927 512 313.806V198.193C512 189.071 504.605 181.677 495.484 181.677Z" fill="#565656"/>
<path d="M306.238 321.901H198.194L181.678 313.807V198.193C181.678 189.071 189.073 181.677 198.194 181.677H313.807L322.755 198.193V305.384C322.754 314.506 315.36 321.901 306.238 321.901Z" fill="#4180DB"/>
<path d="M313.806 181.677V280.774C313.806 299.017 299.017 313.806 280.774 313.806H181.677C181.677 322.927 189.072 330.322 198.193 330.322H313.806C322.928 330.322 330.322 322.927 330.322 313.806V198.193C330.323 189.071 322.928 181.677 313.806 181.677Z" fill="#255EB0"/>
<path d="M124.561 321.901H16.516L0 313.806V198.193C0 189.071 7.395 181.677 16.516 181.677H132.129L141.077 198.193V305.384C141.077 314.506 133.682 321.901 124.561 321.901Z" fill="#777777"/>
<path d="M132.129 181.677V280.774C132.129 299.017 117.34 313.806 99.097 313.806H0C0 322.927 7.395 330.322 16.516 330.322H132.129C141.251 330.322 148.645 322.927 148.645 313.806V198.193C148.645 189.071 141.251 181.677 132.129 181.677Z" fill="#565656"/>
<path d="M286.613 60.226L261.839 35.452C261.072 34.6849 260.162 34.0764 259.16 33.6613C258.159 33.2461 257.085 33.0324 256 33.0324C254.916 33.0324 253.842 33.2461 252.84 33.6613C251.839 34.0764 250.928 34.6849 250.162 35.452L225.388 60.226C224.621 60.9925 224.012 61.9027 223.597 62.9045C223.182 63.9063 222.968 64.9801 222.968 66.0645C222.968 67.1489 223.182 68.2227 223.597 69.2245C224.012 70.2263 224.621 71.1365 225.388 71.903C226.154 72.6701 227.065 73.2786 228.066 73.6937C229.068 74.1089 230.142 74.3226 231.226 74.3226C232.311 74.3226 233.385 74.1089 234.386 73.6937C235.388 73.2786 236.298 72.6701 237.065 71.903L247.742 61.226V107.355C247.742 111.92 251.436 115.613 256 115.613C260.564 115.613 264.258 111.919 264.258 107.355V61.226L274.935 71.903C276.548 73.516 278.661 74.322 280.774 74.322C282.887 74.322 285 73.516 286.613 71.903C287.38 71.1365 287.988 70.2263 288.404 69.2245C288.819 68.2227 289.032 67.1489 289.032 66.0645C289.032 64.9801 288.819 63.9063 288.404 62.9045C287.988 61.9027 287.38 60.9925 286.613 60.226ZM225.387 270.096L250.161 294.87C250.927 295.637 251.837 296.246 252.839 296.661C253.841 297.076 254.915 297.29 255.999 297.29C257.084 297.29 258.158 297.076 259.159 296.661C260.161 296.246 261.071 295.637 261.838 294.87L286.612 270.096C287.379 269.329 287.987 268.419 288.403 267.417C288.818 266.416 289.031 265.342 289.031 264.257C289.031 263.173 288.818 262.099 288.403 261.097C287.987 260.096 287.379 259.186 286.612 258.419C285.845 257.652 284.935 257.043 283.933 256.628C282.932 256.213 281.858 255.999 280.773 255.999C279.689 255.999 278.615 256.213 277.613 256.628C276.612 257.043 275.701 257.652 274.935 258.419L264.258 269.096V222.967C264.258 218.402 260.564 214.709 256 214.709C251.436 214.709 247.742 218.403 247.742 222.967V269.096L237.065 258.419C235.452 256.806 233.339 256 231.226 256C229.113 256 227 256.806 225.387 258.419C224.62 259.186 224.011 260.096 223.596 261.097C223.181 262.099 222.967 263.173 222.967 264.257C222.967 265.342 223.181 266.416 223.596 267.417C224.011 268.419 224.62 269.329 225.387 270.096ZM60.2258 225.387L35.4518 250.161C34.6847 250.928 34.0762 251.838 33.6611 252.839C33.2459 253.841 33.0322 254.915 33.0322 255.999C33.0322 257.084 33.2459 258.158 33.6611 259.16C34.0762 260.161 34.6847 261.071 35.4518 261.838L60.2258 286.612C60.9923 287.379 61.9025 287.988 62.9043 288.403C63.9061 288.818 64.9799 289.032 66.0643 289.032C67.1487 289.032 68.2225 288.818 69.2243 288.403C70.2261 287.988 71.1363 287.379 71.9028 286.612C72.6699 285.845 73.2784 284.935 73.6935 283.933C74.1087 282.932 74.3224 281.858 74.3224 280.773C74.3224 279.689 74.1087 278.615 73.6935 277.613C73.2784 276.612 72.6699 275.702 71.9028 274.935L61.2258 264.258H107.355C111.92 264.258 115.613 260.564 115.613 256C115.613 251.436 111.919 247.742 107.355 247.742H61.2258L71.9028 237.065C73.5158 235.452 74.3218 233.339 74.3218 231.226C74.3218 229.113 73.5158 227 71.9028 225.387C71.1363 224.62 70.2261 224.011 69.2243 223.596C68.2225 223.181 67.1487 222.967 66.0643 222.967C64.9799 222.967 63.9061 223.181 62.9043 223.596C61.9025 224.011 60.9923 224.62 60.2258 225.387ZM451.774 286.613L476.548 261.839C477.315 261.072 477.923 260.162 478.339 259.161C478.754 258.159 478.967 257.085 478.967 256.001C478.967 254.916 478.754 253.842 478.339 252.84C477.923 251.839 477.315 250.929 476.548 250.162L451.774 225.388C448.548 222.162 443.322 222.162 440.097 225.388C436.872 228.614 436.871 233.84 440.097 237.065L450.774 247.742H404.645C400.08 247.742 396.387 251.436 396.387 256C396.387 260.564 400.081 264.258 404.645 264.258H450.774L440.097 274.935C438.484 276.548 437.678 278.661 437.678 280.774C437.678 282.887 438.484 285 440.097 286.613C440.863 287.38 441.774 287.988 442.775 288.403C443.777 288.818 444.851 289.032 445.935 289.032C447.02 289.032 448.093 288.818 449.095 288.403C450.097 287.988 451.007 287.38 451.774 286.613Z" fill="white"/>
</svg>
