<svg width="1204" height="1200" viewBox="0 0 1204 1200" fill="none" xmlns="http://www.w3.org/2000/svg">
<path d="M1095.79 1091.7C1229.14 958.343 1238.51 750.462 1123.68 604.684C1114.31 595.315 1108.21 586.163 1095.79 573.742L1064.84 542.8L664.553 145.778C655.183 151.879 649.082 161.249 639.712 167.568L617.921 189.359L1052.2 623.642C1061.57 633.012 1070.73 645.433 1083.15 657.853C1170.09 775.739 1157.67 946.358 1052.2 1048.56C996.421 1104.34 918.847 1135.5 841.273 1135.5C779.17 1135.5 720.336 1116.98 670.654 1082.77L642.98 1110.22C636.879 1116.32 627.509 1122.64 621.19 1128.74C683.293 1175.16 760.649 1200 838.222 1200C934.318 1200.22 1027.36 1162.96 1095.79 1091.7ZM1011.89 617.105L608.769 1020.23L577.827 1051.39C568.457 1057.49 556.036 1069.91 543.616 1079.28C490.883 1116.54 428.78 1138.11 363.845 1138.11C283.22 1138.11 208.697 1107.17 152.913 1051.17C50.4984 948.755 35.0272 784.455 118.702 666.569L90.8107 638.678C84.7094 632.576 78.3902 623.206 72.2889 616.887C-36.2275 762.665 -20.7563 964.227 106.5 1091.48C174.704 1159.69 267.749 1196.95 363.845 1196.95C447.52 1196.95 528.145 1169.06 590.247 1116.32C599.617 1106.95 608.769 1100.85 621.19 1088.43L652.132 1057.49L1052.2 663.519C1046.1 654.149 1036.73 648.047 1030.41 638.678L1011.89 617.105ZM155.964 576.793C146.594 567.423 137.442 555.002 125.022 542.582C38.0779 424.695 50.4984 254.076 155.964 151.879C211.748 96.0958 286.271 64.9355 366.895 64.9355C428.998 64.9355 487.832 83.4573 537.515 117.668L565.406 89.7766C571.508 83.6752 580.877 77.356 587.197 71.2547C525.094 24.8411 447.738 0 370.164 0C274.068 0 181.023 37.2616 112.819 105.466C-20.5384 238.823 -29.9082 446.704 84.9273 592.482C94.2972 601.852 100.399 611.004 112.819 623.424L543.834 1054.44C553.204 1048.34 559.305 1038.97 568.675 1032.65L590.465 1010.86L187.342 607.735L155.964 576.793ZM580.878 108.516C593.298 96.0958 602.668 89.9945 611.82 80.6246C673.923 27.8917 754.547 0 838.222 0C934.318 0 1027.36 37.2616 1095.57 105.466C1222.82 235.772 1238.29 437.334 1129.78 583.112C1123.68 577.011 1117.36 567.641 1111.26 561.322L1083.36 530.379C1167.04 412.493 1151.57 248.193 1049.15 145.778C993.37 89.9945 918.847 58.8342 838.222 58.8342C773.069 58.8342 710.966 80.6246 658.451 117.668C646.031 130.089 633.61 139.459 624.24 148.611L190.175 582.894L168.385 561.104C162.283 555.002 155.964 545.632 149.863 539.313L580.878 108.516Z" fill="white" fill-opacity="0.2"/>
</svg>
