<svg width="80" height="79" viewBox="0 0 80 79" fill="none" xmlns="http://www.w3.org/2000/svg">
<path d="M46.1698 31.5425C44.4966 32.1046 42.8234 32.8497 41.3332 33.7778C45.9868 37.5033 49.1502 42.8889 49.5162 49.0327C49.5162 49.7778 49.5162 50.3399 49.5162 51.085C49.5162 52.9412 49.3332 54.8105 48.7711 56.4837C47.4639 61.5033 44.3005 65.9739 40.209 68.9542C38.1567 70.4444 35.9345 71.5556 33.5162 72.1176C31.4639 72.6797 29.6077 73.0458 27.5685 73.0458C15.477 73.0458 5.62077 63.1895 5.62077 51.281C5.62077 45.5163 7.85606 40.1176 11.9476 36.0261C11.7646 33.7908 11.5816 31.7516 11.5816 29.8823V29.6993C4.8626 34.7059 0.954102 42.5229 0.954102 50.8889C0.954102 65.5817 13.0456 77.6732 27.7384 77.6732C31.8299 77.6732 35.9214 76.7451 39.6469 74.8889C41.8822 73.7778 44.1175 72.2876 45.9737 70.6144C51.1894 65.9608 54.1567 59.634 54.5358 52.7582C54.5358 52.0131 54.5358 51.6471 54.5358 50.902C54.5358 48.8497 54.3528 46.9935 53.7907 45.1372C52.6796 39.9216 50.0783 35.268 46.1698 31.5425ZM68.3005 29.6863C68.3005 31.7386 68.1175 33.7778 67.7384 35.634C71.8299 39.7255 74.0652 45.1242 74.0652 50.8889C74.0652 62.9804 64.209 72.6536 52.1175 72.6536C50.2613 72.6536 48.392 72.4706 46.5358 71.9085C45.0456 73.2157 43.3724 74.3268 41.6992 75.4379C45.0456 76.7451 48.392 77.4902 52.1175 77.4902C66.8103 77.4902 78.9018 65.5817 78.9018 50.7059C78.9149 42.5229 75.0064 34.7059 68.3005 29.6863ZM52.1175 24.1046C48.026 24.1046 43.9345 25.0327 40.209 26.8889C37.9737 28 35.7384 29.4902 33.8822 31.1634C29.7907 34.8889 26.9933 39.7255 25.8822 45.1111C25.5162 46.9673 25.3201 48.8366 25.3201 50.8758C25.3201 51.4379 25.3201 51.9869 25.3201 52.732C25.6861 59.4248 28.6665 65.7516 33.6861 70.4052C35.3593 69.8431 37.0325 69.098 38.5227 68.1699C34.7972 65.1895 32.0129 61.098 30.8887 56.4444C30.5227 54.5882 30.1436 52.719 30.1436 50.8627C30.1436 50.1176 30.1436 49.5556 30.1436 48.8105C30.8887 42.4837 34.2351 36.7189 39.4508 32.9935C41.5031 31.5033 43.7253 30.3922 46.1436 29.8301C48.1959 29.268 50.0521 28.902 52.0914 28.902C54.8757 28.902 57.6731 29.464 60.0914 30.3922V29.6471C60.0914 28.1569 59.9084 26.4837 59.5293 25.1765C57.3332 24.4706 54.7188 24.1046 52.1175 24.1046ZM40.026 51.8301C37.2417 51.8301 34.4443 51.268 32.026 50.3399V51.085C32.026 52.5752 32.209 54.2484 32.5881 55.5556C34.8234 56.3006 37.4247 56.6667 40.026 56.6667C42.6273 56.6667 45.2417 56.3006 47.66 55.5556C48.026 54.0654 48.2221 52.5752 48.2221 51.085V50.1569C45.4247 51.268 42.8234 51.8301 40.026 51.8301ZM40.026 3.08496C25.8822 3.08496 14.1698 14.0654 13.2417 28.1961C13.2417 28.9412 13.2417 29.3072 13.2417 29.8693C13.2417 31.9216 13.4247 33.7778 13.9868 35.634C15.294 41.7778 18.8234 47.1634 23.66 51.0719V50.8889C23.66 49.0327 23.843 46.9804 24.2221 45.1242C20.8757 41.5948 18.6404 36.7582 18.0783 31.9085C18.0783 31.1634 18.0783 30.6013 18.0783 29.8562C18.0783 28 18.2613 26.1307 18.8234 24.4575C21.2417 14.7974 29.9868 8.10457 40.026 8.10457C50.0652 8.10457 58.8234 14.7974 61.2417 24.4706C61.6077 26.3268 61.9868 28 61.9868 29.8693C61.9868 30.6144 61.9868 31.1765 61.9868 31.9216C61.6208 36.9412 59.3855 41.5948 55.843 45.1372C56.209 46.9935 56.4051 49.0457 56.4051 50.902V51.085C61.4247 47.1765 64.9672 41.7778 66.2613 35.6471C66.6273 33.5948 67.0064 31.7386 67.0064 29.8823C67.0064 29.3203 67.0064 28.7712 67.0064 28.0261C65.8822 14.0523 53.9868 3.08496 40.026 3.08496ZM27.7515 24.1046C25.1502 24.1046 22.5358 24.4706 20.1175 25.2157C19.7515 26.7059 19.5554 28.1961 19.5554 29.6863V30.6144C22.1567 29.5033 24.9541 29.1242 27.5554 29.1242C29.4116 29.1242 31.2809 29.3072 33.1371 29.8693C34.6273 28.5621 36.3005 27.451 37.9737 26.3399C34.8234 24.8497 31.2809 24.1046 27.7515 24.1046Z" fill="#33C47F"/>
</svg>
