<svg width="1182" height="1106" viewBox="0 0 1182 1106" fill="none" xmlns="http://www.w3.org/2000/svg">
<path d="M626.902 924.098L602.588 965.274L592.784 979.784L583.177 965.274L554.157 919.196L496.118 824.686L229.647 381.549C224.745 405.863 222.392 429.98 222.392 451.745C222.392 466.255 222.392 483.314 224.745 500.176L377.294 749.784L459.647 887.823L592.98 1105.86L711.608 911.941C682.588 916.843 653.569 921.745 626.902 924.098ZM619.647 904.686H571.216L530.039 834.49C551.804 836.843 571.216 839.392 592.98 839.392C622 839.392 651.216 837.039 680.235 829.784C731.02 817.627 779.647 795.863 823.176 764.294C907.882 701.353 966.118 609.196 980.628 507.431L1048.47 403.314C1050.82 420.176 1050.82 439.588 1050.82 456.647C1050.82 652.921 922.392 824.882 731.02 885.471C694.745 895.078 658.471 902.333 619.647 904.686ZM282.98 216.647C251.412 255.47 229.647 301.353 215.137 349.98C205.529 381.549 200.628 417.823 200.628 451.745C200.628 468.804 200.628 488.02 202.98 505.078C217.49 606.843 273.177 701.353 358.078 761.941L425.922 873.314C251.412 805.47 135.137 640.765 135.137 454.098C135.137 425.078 137.49 395.863 142.392 369.196C149.647 332.921 159.451 296.451 176.314 262.529C186.118 248.02 193.373 230.961 202.98 216.451H282.98V216.647ZM1181.8 129.588L1041.22 362.137L958.863 497.823L806.314 747.431C772.392 771.745 736.118 788.608 697.294 800.765L968.471 362.137L1026.51 267.627L1058.08 214.294L1067.69 197.235H992.588C978.078 172.921 961.02 151.157 941.804 131.745V129.392H1181.8V129.588ZM0.235352 129.392L767.294 129.588C798.863 149 827.882 168.412 854.549 195.078H118.078L127.686 211.941L156.706 260.372C144.745 287.039 135.137 313.706 127.882 340.176L0.235352 129.392ZM411.216 107.627H294.941C377.294 39.7842 481.412 0.960693 590.627 0.960693C709.255 0.960693 823.177 44.4901 908.078 127.039C934.745 153.706 958.863 182.725 978.275 211.745C987.882 226.255 997.686 243.314 1002.59 252.921L961.412 323.118C944.353 277.039 920.235 233.51 886.314 194.686C854.745 160.961 815.922 129.588 772.392 107.627C716.706 78.6078 653.765 64.0979 590.627 64.0979C530.039 64.0979 467.098 80.9607 411.216 107.627Z" fill="white" fill-opacity="0.4"/>
</svg>
