<svg width="80" height="80" viewBox="0 0 80 80" fill="none" xmlns="http://www.w3.org/2000/svg">
<path d="M42.3266 65.0066L40.7057 67.7517L40.0521 68.719L39.4116 67.7517L37.4769 64.6798L33.6077 58.3791L15.8429 28.8367C15.5161 30.4576 15.3593 32.0654 15.3593 33.5164C15.3593 34.4837 15.3593 35.621 15.5161 36.7452L25.6861 53.3857L31.1763 62.5883L40.0652 77.1242L47.9737 64.1961C46.039 64.5229 44.1044 64.8497 42.3266 65.0066ZM41.8429 63.7125H38.6142L35.8691 59.0327C37.3201 59.1896 38.6142 59.3595 40.0652 59.3595C41.9998 59.3595 43.9475 59.2027 45.8822 58.719C49.2678 57.9086 52.5096 56.4576 55.4116 54.353C61.0586 50.1569 64.941 44.0131 65.9083 37.2288L70.4312 30.2876C70.588 31.4118 70.588 32.7059 70.588 33.8432C70.588 46.9282 62.026 58.3922 49.2678 62.4314C46.8495 63.072 44.4312 63.5556 41.8429 63.7125ZM19.3985 17.8432C17.2939 20.4314 15.8429 23.4903 14.8756 26.7321C14.2351 28.8367 13.9083 31.255 13.9083 33.5164C13.9083 34.6537 13.9083 35.9347 14.0652 37.072C15.0325 43.8563 18.7449 50.1569 24.405 54.1961L28.9279 61.621C17.2939 57.0981 9.54229 46.1177 9.54229 33.6733C9.54229 31.7386 9.69916 29.7909 10.026 28.0131C10.5096 25.5948 11.1632 23.1635 12.2874 20.902C12.941 19.9347 13.4246 18.7974 14.0652 17.8301H19.3985V17.8432ZM79.3201 12.0393L69.9475 27.5425L64.4573 36.5883L54.2874 53.2288C52.026 54.8497 49.6077 55.9739 47.0194 56.7844L65.0978 27.5425L68.9671 21.2419L71.0717 17.6863L71.7122 16.5491H66.7057C65.7384 14.9282 64.6011 13.4772 63.3201 12.1831V12.0262H79.3201V12.0393ZM0.548828 12.0262L51.6861 12.0393C53.7907 13.3334 55.7253 14.6275 57.5031 16.4053H8.40504L9.04556 17.5295L10.9802 20.7582C10.1828 22.536 9.54229 24.3138 9.05863 26.0785L0.548828 12.0262ZM27.9475 10.5752H20.1959C25.6861 6.05235 32.6273 3.46411 39.9083 3.46411C47.8168 3.46411 55.4116 6.36607 61.0717 11.8693C62.8495 13.6471 64.4573 15.5818 65.7514 17.5164C66.392 18.4837 67.0456 19.621 67.3724 20.2615L64.6273 24.9412C63.49 21.8693 61.8822 18.9674 59.6207 16.3791C57.5162 14.1308 54.9279 12.0393 52.026 10.5752C48.3135 8.64058 44.1175 7.67326 39.9083 7.67326C35.8691 7.67326 31.673 8.79745 27.9475 10.5752Z" fill="#4180DB"/>
</svg>
