<svg width="1255" height="1200" viewBox="0 0 1255 1200" fill="none" xmlns="http://www.w3.org/2000/svg">
<path d="M727.445 457.834C700.526 466.877 673.607 478.864 649.632 493.796C724.501 553.733 775.394 640.379 781.283 739.222C781.283 751.209 781.283 760.252 781.283 772.24C781.283 802.103 778.339 832.177 769.295 859.096C748.265 939.853 697.371 1011.78 631.546 1059.73C598.528 1083.7 562.776 1101.58 523.87 1110.62C490.852 1119.66 460.988 1125.55 428.181 1125.55C233.649 1125.55 75.0789 966.982 75.0789 775.394C75.0789 682.65 111.041 595.794 176.866 529.968C173.922 494.006 170.978 461.199 170.978 431.125V428.181C62.8812 508.728 0 634.49 0 769.085C0 1005.47 194.532 1200 430.915 1200C496.74 1200 562.566 1185.07 622.503 1155.21C658.465 1137.33 694.427 1113.35 724.29 1086.44C808.202 1011.57 855.941 909.779 862.04 799.159C862.04 787.171 862.04 781.283 862.04 769.295C862.04 736.278 859.096 706.414 850.053 676.551C832.177 592.639 790.326 517.771 727.445 457.834ZM1083.49 427.971C1083.49 460.988 1080.55 493.796 1074.45 523.659C1140.27 589.485 1176.24 676.341 1176.24 769.085C1176.24 963.617 1017.67 1119.24 823.134 1119.24C793.27 1119.24 763.197 1116.3 733.333 1107.26C709.359 1128.29 682.44 1146.16 655.52 1164.04C709.359 1185.07 763.197 1197.06 823.134 1197.06C1059.52 1197.06 1254.05 1005.47 1254.05 766.141C1254.26 634.49 1191.38 508.728 1083.49 427.971ZM823.134 338.17C757.308 338.17 691.483 353.102 631.546 382.965C595.584 400.841 559.621 424.816 529.758 451.735C463.933 511.672 418.927 589.485 401.051 676.13C395.163 705.994 392.008 736.067 392.008 768.875C392.008 777.918 392.008 786.751 392.008 798.738C397.897 906.414 445.846 1008.2 526.604 1083.07C553.523 1074.03 580.442 1062.04 604.416 1047.11C544.48 999.159 499.685 933.333 481.598 858.465C475.71 828.601 469.611 798.528 469.611 768.665C469.611 756.677 469.611 747.634 469.611 735.647C481.598 633.859 535.436 541.115 619.348 481.178C652.366 457.203 688.118 439.327 727.024 430.284C760.042 421.241 789.905 415.352 822.713 415.352C867.508 415.352 912.513 424.395 951.42 439.327V427.34C951.42 403.365 948.475 376.446 942.376 355.415C907.045 344.059 864.984 338.17 823.134 338.17ZM628.601 784.227C583.807 784.227 538.801 775.184 499.895 760.252V772.24C499.895 796.214 502.839 823.133 508.938 844.164C544.9 856.151 586.751 862.04 628.601 862.04C670.452 862.04 712.513 856.151 751.42 844.164C757.308 820.189 760.463 796.214 760.463 772.24V757.308C715.457 775.184 673.607 784.227 628.601 784.227ZM628.601 0C401.052 0 212.618 176.656 197.687 403.996C197.687 415.983 197.687 421.872 197.687 430.915C197.687 463.933 200.631 493.796 209.674 523.659C230.704 622.503 287.487 709.148 365.3 772.029V769.085C365.3 739.222 368.244 706.204 374.343 676.341C320.505 619.558 284.543 541.745 275.499 463.722C275.499 451.735 275.499 442.692 275.499 430.704C275.499 400.841 278.444 370.768 287.487 343.849C326.393 188.433 467.087 80.7571 628.601 80.7571C790.116 80.7571 931.02 188.433 969.926 344.059C975.815 373.922 981.914 400.841 981.914 430.915C981.914 442.902 981.914 451.945 981.914 463.933C976.025 544.69 940.063 619.558 883.07 676.551C888.959 706.414 892.114 739.432 892.114 769.295V772.24C972.871 709.358 1029.86 622.503 1050.68 523.87C1056.57 490.852 1062.67 460.988 1062.67 431.125C1062.67 422.082 1062.67 413.249 1062.67 401.262C1044.58 176.446 853.207 0 628.601 0ZM431.125 338.17C389.274 338.17 347.213 344.059 308.307 356.046C302.418 380.021 299.264 403.996 299.264 427.971V442.902C341.115 425.026 386.12 418.927 427.971 418.927C457.834 418.927 487.907 421.872 517.771 430.915C541.745 409.884 568.665 392.008 595.584 374.132C544.9 350.158 487.907 338.17 431.125 338.17Z" fill="white" fill-opacity="0.1"/>
</svg>
