<svg width="80" height="80" viewBox="0 0 80 80" fill="none" xmlns="http://www.w3.org/2000/svg">
<path d="M69.6473 69.477C77.6473 61.477 78.2094 49.0064 71.3205 40.2613C70.7585 39.6992 70.3924 39.1502 69.6473 38.4051L67.7911 36.5489L43.7781 12.7319C43.216 13.0979 42.85 13.66 42.2879 14.0391L40.9807 15.3463L67.033 41.3986C67.5951 41.9607 68.1441 42.7058 68.8892 43.4509C74.1049 50.5228 73.3598 60.7581 67.033 66.8888C63.6866 70.2352 59.033 72.1045 54.3794 72.1045C50.6539 72.1045 47.1245 70.9934 44.1441 68.9411L42.484 70.5881C42.1179 70.9541 41.5558 71.3332 41.1768 71.6992C44.9023 74.4835 49.5428 75.9737 54.1964 75.9737C59.9611 75.9868 65.5428 73.7515 69.6473 69.477ZM64.6147 41.0064L40.4317 65.1894L38.5755 67.0587C38.0134 67.4247 37.2683 68.1698 36.5232 68.7319C33.3598 70.9672 29.6343 72.2613 25.7389 72.2613C20.9023 72.2613 16.4317 70.4051 13.0853 67.0456C6.94147 60.9018 6.01336 51.0456 11.033 43.9737L9.35977 42.3005C8.99376 41.9345 8.61467 41.3724 8.24866 40.9934C1.73885 49.7384 2.66696 61.83 10.3009 69.4639C14.3924 73.5554 19.9741 75.7907 25.7389 75.7907C30.7585 75.7907 35.5951 74.1175 39.3206 70.9541C39.8826 70.392 40.4317 70.026 41.1768 69.2809L43.033 67.4247L67.033 43.7907C66.667 43.2286 66.1049 42.8626 65.7258 42.3005L64.6147 41.0064ZM13.2683 38.5881C12.7062 38.026 12.1572 37.2809 11.4121 36.5358C6.19637 29.4639 6.94147 19.2286 13.2683 13.0979C16.6147 9.75152 21.0853 7.88224 25.9219 7.88224C29.6474 7.88224 33.1768 8.99335 36.1572 11.0456L37.8304 9.37244C38.1964 9.00642 38.7585 8.62734 39.1375 8.26133C35.4121 5.47701 30.7715 3.98682 26.1179 3.98682C20.3532 3.98682 14.7715 6.22211 10.68 10.3136C2.68003 18.3136 2.11794 30.7842 9.00683 39.5293C9.56892 40.0914 9.93493 40.6404 10.68 41.3855L36.5362 67.2417C37.0983 66.8757 37.4643 66.3136 38.0264 65.9345L39.3336 64.6273L15.1506 40.4443L13.2683 38.5881ZM38.7585 10.4966C39.5036 9.75152 40.0657 9.38551 40.6147 8.82342C44.3402 5.66002 49.1768 3.98682 54.1964 3.98682C59.9611 3.98682 65.5428 6.22211 69.6343 10.3136C77.2683 18.1306 78.1964 30.2221 71.6866 38.9672C71.3206 38.6012 70.9415 38.0391 70.5755 37.66L68.9022 35.8038C73.9219 28.7319 72.9938 18.8757 66.85 12.7319C63.5036 9.38551 59.033 7.51623 54.1964 7.51623C50.2879 7.51623 46.5624 8.82342 43.4121 11.0456C42.667 11.7907 41.9219 12.3528 41.3598 12.9018L15.3206 38.9541L14.0134 37.6469C13.6474 37.2809 13.2683 36.7188 12.9023 36.3398L38.7585 10.4966Z" fill="#A061D1"/>
</svg>
