<svg width="1029" height="1200" viewBox="0 0 1029 1200" fill="none" xmlns="http://www.w3.org/2000/svg">
<path d="M514.286 1128.54L265.775 982.804V808.565L514.286 954.299L820.007 777.25L968.551 691.536V862.964L514.286 1128.54ZM60.0201 334.226L311.342 188.491L457.076 277.016L208.565 419.94L205.754 948.478L60.0201 862.764C60.0201 862.964 60.0201 334.226 60.0201 334.226ZM514.286 314.353L694.346 420.141L759.987 457.277V740.114L511.475 883.038L268.585 740.114V454.266L514.286 314.353ZM965.741 334.226V622.683L817.196 708.397V419.94L722.851 365.741L531.348 251.522L368.551 151.556L511.475 68.6517L965.741 334.226ZM514.286 0L0 300.1V900.1L514.286 1200L1028.57 900.1V300.1L514.286 0Z" fill="white" fill-opacity="0.4"/>
</svg>
