<svg width="80" height="80" viewBox="0 0 80 80" fill="none" xmlns="http://www.w3.org/2000/svg">
<path d="M39.9345 74.3269L23.7515 64.8367V53.4903L39.9345 62.9805L59.843 51.4511L69.5162 45.8694V57.0328L39.9345 74.3269ZM10.3528 22.6014L26.7188 13.1112L36.209 18.8759L20.026 28.1831L19.843 62.6014L10.3528 57.0197C10.3528 57.0328 10.3528 22.6014 10.3528 22.6014ZM39.9345 21.3073L51.66 28.1961L55.9345 30.6144V49.0328L39.7515 58.3399L23.9345 49.0328V30.4184L39.9345 21.3073ZM69.3332 22.6014V41.3857L59.66 46.9674V28.1831L53.5162 24.6537L41.0456 17.2158L30.4443 10.706L39.7515 5.30726L69.3332 22.6014ZM39.9345 0.83667L6.44434 20.3792V59.4511L39.9345 78.9805L73.4247 59.4511V20.3792L39.9345 0.83667Z" fill="#FF6950"/>
</svg>
